# xmcd CD database file
#
# Track frame offsets:
#	150
#	18515
#	44216
#	59563
#	78043
#	96216
#	115577
#	132965
#	155342
#	175601
#	196191
#	218631
#
# Disc length: 3196 seconds
#
# Revision: 0
# Processed by: cddbd v1.5.2PL0 Copyright (c) Steve Scherf et al.
# Submitted via: jetAudio 7
#
DISCID=990c7a0c
DTITLE=于萍 Yu Ping  - 大提琴狂想曲
DYEAR=1900
DGENRE=장르 없음
TTITLE0=蝶兒蝶兒滿天飛
TTITLE1=恨不相逢未嫁時
TTITLE2=紅雪蓮
TTITLE3=萊茵河之戀
TTITLE4=一簾幽夢
TTITLE5=女兒情
TTITLE6=鴻雁
TTITLE7=父親的草原母親的河
TTITLE8=天邊
TTITLE9=似水流年
TTITLE10=葬花吟
TTITLE11=幾度夕陽紅
EXTD=
EXTT0=
EXTT1=
EXTT2=
EXTT3=
EXTT4=
EXTT5=
EXTT6=
EXTT7=
EXTT8=
EXTT9=
EXTT10=
EXTT11=
PLAYORDER=
